HIERARCHY
ROOT Hips
{
    OFFSET 0.000000 0.000000 0.000000
    CHANNELS 6 Xposition Yposition Zposition Zrotation Xrotation Yrotation
    JOINT Spine
    {
        OFFSET -0.000000 8.079700 0.000000
        CHANNELS 3 Zrotation Xrotation Yrotation
        JOINT Spine1
        {
            OFFSET -0.000000 23.289207 0.000000
            CHANNELS 3 Zrotation Xrotation Yrotation
            JOINT Neck
            {
                OFFSET -0.000000 23.193563 2.108506
                CHANNELS 3 Zrotation Xrotation Yrotation
                JOINT Head
                {
                    OFFSET -0.000000 13.794610 -1.970658
                    CHANNELS 3 Zrotation Xrotation Yrotation
                    End Site
                    {
                        OFFSET -0.000000 24.633232 0.000000
                    }
                }
            }
            JOINT LeftShoulder
            {
                OFFSET 3.964071 21.437269 -0.109506
                CHANNELS 3 Zrotation Xrotation Yrotation
                JOINT LeftArm
                {
                    OFFSET 10.889085 0.000000 0.000000
                    CHANNELS 3 Zrotation Xrotation Yrotation
                    JOINT LeftForeArm
                    {
                        OFFSET 33.323662 0.000000 0.000000
                        CHANNELS 3 Zrotation Xrotation Yrotation
                        JOINT LeftHand
                        {
                            OFFSET 25.127829 0.000000 0.000000
                            CHANNELS 3 Zrotation Xrotation Yrotation
                            End Site
                            {
                                OFFSET 14.779941 0.000000 0.000000
                            }
                        }
                    }
                }
            }
            JOINT RightShoulder
            {
                OFFSET -3.907116 21.437269 -0.109506
                CHANNELS 3 Zrotation Xrotation Yrotation
                JOINT RightArm
                {
                    OFFSET -10.889085 0.000000 0.000000
                    CHANNELS 3 Zrotation Xrotation Yrotation
                    JOINT RightForeArm
                    {
                        OFFSET -33.323662 0.000000 0.000000
                        CHANNELS 3 Zrotation Xrotation Yrotation
                        JOINT RightHand
                        {
                            OFFSET -25.127829 0.000000 0.000000
                            CHANNELS 3 Zrotation Xrotation Yrotation
                            End Site
                            {
                                OFFSET -14.779941 0.000000 0.000000
                            }
                        }
                    }
                }
            }
        }
    }
    JOINT LeftUpLeg
    {
        OFFSET 9.853293 0.000000 0.000000
        CHANNELS 3 Zrotation Xrotation Yrotation
        JOINT LeftLeg
        {
            OFFSET -0.000000 -42.191887 0.000000
            CHANNELS 3 Zrotation Xrotation Yrotation
            JOINT LeftFoot
            {
                OFFSET -0.000000 -39.359688 0.000000
                CHANNELS 3 Zrotation Xrotation Yrotation
                JOINT LeftToeBase
                {
                    OFFSET -0.000000 -6.404640 14.779941
                    CHANNELS 3 Zrotation Xrotation Yrotation
                    End Site
                    {
                        OFFSET -0.000000 0.000000 3.941317
                    }
                }
            }
        }
    }
    JOINT RightUpLeg
    {
        OFFSET -9.853293 0.000000 0.000000
        CHANNELS 3 Zrotation Xrotation Yrotation
        JOINT RightLeg
        {
            OFFSET -0.000000 -42.191887 0.000000
            CHANNELS 3 Zrotation Xrotation Yrotation
            JOINT RightFoot
            {
                OFFSET -0.000000 -39.359688 0.000000
                CHANNELS 3 Zrotation Xrotation Yrotation
                JOINT RightToeBase
                {
                    OFFSET -0.000000 -6.404640 14.779941
                    CHANNELS 3 Zrotation Xrotation Yrotation
                    End Site
                    {
                        OFFSET -0.000000 0.000000 3.941317
                    }
                }
            }
        }
    }
}
MOTION
Frames:    8
Frame Time:    0.008333
8.415243    91.886864    210.888382    1.884428    -0.625834    176.932098    1.126341    -0.355764    -0.521210    1.106977    0.851865    -0.533032    5.321501    18.963270    8.319484    -7.859899    -9.296538    7.059020    16.643877    5.719647    7.900743    -23.341755    -4.592044    -1.379136    5.142955    -4.653271    -8.166504    12.900634    -4.808648    -4.625973    -10.432220    2.967812    1.387502    21.581652    -6.707981    3.399467    -2.059262    -1.906222    0.473274    -8.015066    -2.664296    10.917448    1.070393    5.379922    10.040323    -2.404881    -0.640986    10.873818    3.918177    -3.913094    9.894864    0.000000    0.000000    0.000000    -2.177209    4.273736    2.754352    5.159687    1.006733    -3.052632    -11.382367    -3.239590    -8.821117    0.000000    0.000000    0.000000    
8.420483    91.886139    210.880524    1.890456    -0.618802    176.923645    1.124403    -0.372895    -0.520767    1.123583    0.892096    -0.533193    5.323175    18.931494    8.390757    -7.852037    -9.254775    7.136271    16.626101    5.731107    7.927043    -23.338762    -4.575870    -1.395435    5.159468    -4.665498    -8.191816    12.851914    -4.816741    -4.627573    -10.440209    2.975188    1.393031    21.586782    -6.698983    3.410716    -2.063881    -1.891573    0.508769    -8.069079    -2.653843    10.912483    1.083632    5.394060    10.035822    -2.414825    -0.642268    10.861156    3.930448    -3.917001    9.912169    0.000000    0.000000    0.000000    -2.165411    4.275608    2.729216    5.153406    1.024148    -3.047412    -11.361379    -3.249642    -8.802464    0.000000    0.000000    0.000000    
8.424933    91.885864    210.873749    1.895237    -0.609973    176.911057    1.126637    -0.387510    -0.504413    1.121564    0.931246    -0.517515    5.355691    18.930960    8.450287    -7.850809    -9.263486    7.198831    16.627811    5.752665    7.899154    -23.342028    -4.562399    -1.383735    5.165450    -4.680127    -8.234821    12.862045    -4.829565    -4.628869    -10.415145    2.993533    1.398027    21.565783    -6.706356    3.385145    -2.076862    -1.850178    0.547622    -8.027375    -2.612152    10.974977    1.085306    5.394268    10.066622    -2.402617    -0.616092    10.863170    3.906818    -3.931492    9.899755    0.000000    0.000000    0.000000    -2.160069    4.280118    2.741739    5.152392    1.041804    -3.031104    -11.359876    -3.266615    -8.814316    0.000000    0.000000    0.000000    
8.429461    91.885902    210.867645    1.896934    -0.593532    176.910004    1.124829    -0.394561    -0.506462    1.133367    0.982121    -0.520222    5.346242    18.923342    8.538887    -7.828509    -9.308505    7.292522    16.598001    5.746571    7.921243    -23.329277    -4.530335    -1.386749    5.190834    -4.702571    -8.267923    12.804626    -4.847901    -4.642856    -10.408924    2.993274    1.416514    21.549522    -6.667006    3.377061    -2.115177    -1.759295    0.567332    -7.625070    -2.498648    11.223142    1.087150    5.397413    10.084088    -2.394640    -0.578899    10.834289    3.920491    -3.949807    9.917697    0.000000    0.000000    0.000000    -2.156060    4.293640    2.738697    5.155726    1.054636    -3.048769    -11.379103    -3.277277    -8.787807    0.000000    0.000000    0.000000    
8.430986    91.886070    210.863708    1.891876    -0.581463    176.911514    1.128118    -0.399001    -0.504101    1.111766    1.016707    -0.517928    5.404633    18.947330    8.622489    -7.852031    -9.374948    7.372828    16.618198    5.685416    7.876255    -23.331110    -4.447149    -1.298568    5.207284    -4.716453    -8.325241    12.820610    -4.859072    -4.646892    -10.371330    3.020768    1.437136    21.518961    -6.632892    3.367034    -2.122904    -1.730792    0.572826    -7.650951    -2.475530    11.266731    1.079938    5.391912    10.129666    -2.383109    -0.537721    10.805330    3.890076    -3.976089    9.894766    0.000000    0.000000    0.000000    -2.157631    4.296756    2.702603    5.149772    1.071693    -3.058763    -11.359988    -3.275178    -8.744910    0.000000    0.000000    0.000000    
8.433972    91.885735    210.860626    1.896679    -0.568428    176.905029    1.132897    -0.395483    -0.496746    1.114326    1.041018    -0.510945    6.332309    21.360365    8.737992    -9.934042    -12.727972    6.921601    16.597715    5.683845    7.871622    -23.318064    -4.428345    -1.291963    5.213912    -4.721293    -8.355774    12.876792    -4.866048    -4.662050    -10.361940    3.049978    1.444046    21.508635    -6.593068    3.374713    -2.107175    -1.740001    0.570047    -8.124974    -2.521116    11.118513    1.042098    5.597850    8.616383    -2.335006    -1.020490    12.477966    3.930001    -3.746835    9.706200    0.000000    0.000000    0.000000    -2.155964    4.302129    2.730084    5.156773    1.092327    -3.005251    -11.377083    -3.279606    -8.811829    0.000000    0.000000    0.000000    
8.435752    91.884544    210.856552    1.895485    -0.550200    176.897629    1.138881    -0.394118    -0.496835    1.102822    1.074662    -0.511155    6.309484    21.354807    8.823995    -9.846189    -12.750617    7.029994    16.585102    5.685102    7.877282    -23.314251    -4.382564    -1.286478    5.243926    -4.734182    -8.363280    12.895448    -4.879309    -4.681321    -10.331476    3.075064    1.458160    21.478491    -6.556461    3.397397    -2.122849    -1.672284    0.545220    -8.078315    -2.453882    11.183162    1.042478    5.600471    8.644209    -2.334909    -0.979036    12.421526    3.918668    -3.766873    9.757644    0.000000    0.000000    0.000000    -2.156190    4.310819    2.726772    5.156623    1.112776    -3.007802    -11.351647    -3.293296    -8.821340    0.000000    0.000000    0.000000    
8.437832    91.881668    210.856201    1.898387    -0.546525    176.907715    1.161408    -0.393663    -0.505766    1.066012    1.087289    -0.519882    6.307397    21.353018    8.884735    -9.769775    -12.764106    7.111183    16.591242    5.693969    7.904510    -23.308605    -4.327741    -1.305222    5.254340    -4.728558    -8.363030    13.045192    -4.879741    -4.686487    -10.304594    3.094585    1.475897    21.469505    -6.515856    3.410316    -2.126728    -1.616098    0.541064    -8.111813    -2.402389    11.201214    1.093992    5.380493    10.157934    -2.376915    -0.428461    10.753552    3.904904    -4.039231    9.930364    0.000000    0.000000    0.000000    -2.146995    4.306332    2.694244    5.146904    1.131458    -3.004281    -11.371925    -3.295769    -8.792388    0.000000    0.000000    0.000000    
